<svg xmlns="http://www.w3.org/2000/svg" width="522" height="380"><g fill="none" fill-rule="nonzero"><path fill="#F7F9FB" d="M261 0c104.93 0 190 85.07 190 190s-85.07 190-190 190v-35c85.6 0 155-69.4 155-155S346.6 35 261 35V0z"/><path fill="#E7EDF3" d="M262 0C157.07 0 72 85.07 72 190s85.07 190 190 190v-35c-85.6 0-155-69.4-155-155S176.4 35 262 35V0z"/><path fill="#9DADBD" d="M40.85 229c-7.69 0-14.64-1.67-20.86-5.01a37.4 37.4 0 0 1-14.65-13.9C1.78 204.17 0 197.47 0 190c0-7.47 1.78-14.17 5.34-20.1a37.4 37.4 0 0 1 14.65-13.89c6.22-3.34 13.2-5.01 20.97-5.01 6.54 0 12.45 1.15 17.73 3.45 5.28 2.3 9.72 5.6 13.31 9.9L60.79 174.7c-5.1-5.89-11.42-8.83-18.97-8.83a25.2 25.2 0 0 0-12.5 3.07 21.83 21.83 0 0 0-8.57 8.56 25.17 25.17 0 0 0-3.07 12.5c0 4.67 1.02 8.83 3.07 12.5a21.83 21.83 0 0 0 8.57 8.56 25.2 25.2 0 0 0 12.5 3.07c7.55 0 13.87-2.98 18.97-8.94L72 215.53a34.94 34.94 0 0 1-13.37 10.02A44.38 44.38 0 0 1 40.85 229zm92.03-18.07h-35.2L90.99 227H73l33.78-75h17.33L158 227h-18.4l-6.72-16.07zM128 198l-12-29-12 29h24zm70.45-46c6.64 0 12.4 1.1 17.3 3.32 4.88 2.22 8.65 5.36 11.29 9.43 2.64 4.07 3.96 8.9 3.96 14.46 0 5.5-1.32 10.3-3.96 14.41a25.24 25.24 0 0 1-11.3 9.43c-4.89 2.18-10.65 3.27-17.3 3.27h-15.1V227H166v-75h32.45zm-.36 41c5.2 0 9.15-1.12 11.85-3.37 2.7-2.25 4.06-5.44 4.06-9.58 0-4.2-1.35-7.43-4.06-9.68-2.7-2.25-6.65-3.37-11.85-3.37H184v26h14.1zm71.76 36c-5.99 0-11.78-.8-17.37-2.42-5.6-1.62-10.09-3.72-13.48-6.3l5.95-13.15a40.48 40.48 0 0 0 11.59 5.71 43.7 43.7 0 0 0 13.42 2.15c4.98 0 8.66-.73 11.04-2.2 2.38-1.48 3.57-3.43 3.57-5.88 0-1.8-.7-3.28-2.1-4.47a16.03 16.03 0 0 0-5.42-2.85c-2.2-.72-5.18-1.51-8.93-2.37a123.9 123.9 0 0 1-14.18-4.1 23.04 23.04 0 0 1-9.47-6.57c-2.64-3.01-3.95-7.04-3.95-12.06 0-4.39 1.19-8.35 3.57-11.9 2.38-3.56 5.97-6.38 10.77-8.47 4.8-2.08 10.66-3.12 17.59-3.12 4.83 0 9.56.57 14.18 1.72a42 42 0 0 1 12.12 4.96l-5.41 13.25c-7-3.95-14-5.92-21-5.92-4.9 0-8.53.79-10.88 2.37-2.34 1.58-3.52 3.66-3.52 6.24 0 2.59 1.36 4.51 4.06 5.77 2.7 1.26 6.84 2.5 12.4 3.71a123.9 123.9 0 0 1 14.18 4.1 23.49 23.49 0 0 1 9.47 6.46c2.63 2.95 3.95 6.93 3.95 11.96 0 4.31-1.2 8.24-3.63 11.8-2.41 3.55-6.04 6.37-10.88 8.46-4.83 2.08-10.71 3.12-17.64 3.12zm77.15 0c-10.73 0-19.07-3-25.04-8.98-5.97-5.98-8.96-14.52-8.96-25.63V152h17.38v41.74c0 13.56 5.57 20.34 16.73 20.34 5.43 0 9.58-1.64 12.44-4.92 2.86-3.29 4.29-8.42 4.29-15.42V152H381v42.4c0 11.1-2.99 19.64-8.96 25.62-5.97 5.99-14.31 8.98-25.04 8.98zm52-77h17.37v60.86H454V227h-55v-75zm123 61.07V227h-58v-75h56.6v13.93h-39.37v16.28H516v13.5h-34.78v17.36H522z"/></g></svg>